<?xml version="1.0" encoding="UTF-8" standalone="no"?>
<svg xmlns="http://www.w3.org/2000/svg" xmlns:xlink="http://www.w3.org/1999/xlink" id="svg" height="0">

<style type="text/css"><![CDATA[
text { font-size:11pt; font-style:normal; font-variant:normal; font-weight:normal; font-stretch:normal; text-align:center; fill-opacity:1; font-family:"Helvetica"; }
path.l1 { fill:none;stroke:#000000;stroke-width:1;stroke-linecap:round;stroke-linejoin:miter;stroke-miterlimit:4;stroke-opacity:1;stroke-dasharray:none; }
path.l2 { fill:none;stroke:#000000;stroke-width:0.5;stroke-linecap:round;stroke-linejoin:miter;stroke-miterlimit:4;stroke-opacity:1;stroke-dasharray:none; }
path.l3 { color:#000000;fill:none;stroke:#000000;stroke-width:1;stroke-linecap:round;stroke-linejoin:miter;stroke-miterlimit:4;stroke-opacity:1;stroke-dasharray:1, 3;stroke-dashoffset:0;marker:none;visibility:visible;display:inline;overflow:visible; }
path.l4 { fill:#000000;fill-opacity:1;stroke:#000000;stroke-width:1;stroke-linecap:round;stroke-linejoin:miter;stroke-miterlimit:4;stroke-opacity:1;stroke-dasharray:none; }
path.f3 { color:#000000;fill:#ffffc0;fill-opacity:1;fill-rule:nonzero;stroke:none;stroke-width:1px;marker:none;visibility:visible;display:inline;overflow:visible; }
path.f4 { color:#000000;fill:#ffe0c0;fill-opacity:1;fill-rule:nonzero;stroke:none;stroke-width:1px;marker:none;visibility:visible;display:inline;overflow:visible; }
path.f5 { color:#000000;fill:#c0e0ff;fill-opacity:1;fill-rule:nonzero;stroke:none;stroke-width:1px;marker:none;visibility:visible;display:inline;overflow:visible; }
]]></style>

<defs><g id="wavetemps" style="display:none">

<!-- SVG template begins -->
<g id="pclk"><path d="M 0,20 0,0 20,0" class="l1"/></g>
<g id="nclk"><path d="m 0,0 0,20 20,0" class="l1"/></g>
<g id="000"><path d="m 0,20 20,0" class="l1"/></g>
<g id="0m0"><path d="m 0,20 3,0 3,-10 3,10 11,0" class="l1"/></g>
<g id="0m1"><path d="M 0,20 3,20 9,0 20,0" class="l1"/></g>
<g id="0mx"><path d="M 3,20 9,0 20,0" class="l1"/><path d="m 20,15 -5,5" class="l2"/><path d="M 20,10 10,20" class="l2"/><path d="M 20,5 5,20" class="l2"/><path d="M 20,0 4,16" class="l2"/><path d="M 15,0 6,9" class="l2"/><path class="l2" d="M 10,0 9,1"/><path d="m 0,20 20,0" class="l1"/></g>
<g id="0md"><path d="m 8,20 10,0" class="l3"/><path class="l1" d="m 0,20 5,0"/></g>
<g id="0mu"><path d="m 0,20 3,0 C 7,10 10.107603,0 20,0" class="l1"/></g>
<g id="0mz"><path d="m 0,20 3,0 C 10,10 15,10 20,10" class="l1"/></g>
<g id="111"><path d="M 0,0 20,0" class="l1"/></g>
<g id="1m0"><path d="m 0,0 3,0 6,20 11,0" class="l1"/></g>
<g id="1m1"><path d="M 0,0 3,0 6,10 9,0 20,0" class="l1"/></g>
<g id="1mx"><path d="m 3,0 6,20 11,0" class="l1"/><path d="M 0,0 20,0" class="l1"/><path d="m 20,15 -5,5" class="l2"/><path d="M 20,10 10,20" class="l2"/><path d="M 20,5 8,17" class="l2"/><path d="M 20,0 7,13" class="l2"/><path d="M 15,0 6,9" class="l2"/><path d="M 10,0 5,5" class="l2"/><path d="M 3.5,1.5 5,0" class="l2"/></g>
<g id="1md"><path d="m 0,0 3,0 c 4,10 7,20 17,20" class="l1"/></g>
<g id="1mu"><path d="M 0,0 5,0" class="l1"/><path class="l3" d="M 8,0 18,0"/></g>
<g id="1mz"><path d="m 0,0 3,0 c 7,10 12,10 17,10" class="l1"/></g>
<g id="xxx"><path d="m 0,20 20,0" class="l1"/><path d="M 0,0 20,0" class="l1"/><path d="M 0,5 5,0" class="l2"/><path d="M 0,10 10,0" class="l2"/><path d="M 0,15 15,0" class="l2"/><path d="M 0,20 20,0" class="l2"/><path d="M 5,20 20,5" class="l2"/><path d="M 10,20 20,10" class="l2"/><path d="m 15,20 5,-5" class="l2"/></g>
<g id="xm0"><path d="M 0,0 4,0 9,20" class="l1"/><path d="m 0,20 20,0" class="l1"/><path d="M 0,5 4,1" class="l2"/><path d="M 0,10 5,5" class="l2"/><path d="M 0,15 6,9" class="l2"/><path d="M 0,20 7,13" class="l2"/><path d="M 5,20 8,17" class="l2"/></g>
<g id="xm1"><path d="M 0,0 20,0" class="l1"/><path d="M 0,20 4,20 9,0" class="l1"/><path d="M 0,5 5,0" class="l2"/><path d="M 0,10 9,1" class="l2"/><path d="M 0,15 7,8" class="l2"/><path d="M 0,20 5,15" class="l2"/></g>
<g id="xmx"><path d="m 0,20 20,0" class="l1"/><path d="M 0,0 20,0" class="l1"/><path d="M 0,5 5,0" class="l2"/><path d="M 0,10 10,0" class="l2"/><path d="M 0,15 15,0" class="l2"/><path d="M 0,20 20,0" class="l2"/><path d="M 5,20 20,5" class="l2"/><path d="M 10,20 20,10" class="l2"/><path d="m 15,20 5,-5" class="l2"/></g>
<g id="xmd"><path d="m 0,0 4,0 c 3,10 6,20 16,20" class="l1"/><path d="m 0,20 20,0" class="l1"/><path d="M 0,5 4,1" class="l2"/><path d="M 0,10 5.5,4.5" class="l2"/><path d="M 0,15 6.5,8.5" class="l2"/><path d="M 0,20 8,12" class="l2"/><path d="m 5,20 5,-5" class="l2"/><path class="l2" d="m 10,20 2.5,-2.5"/></g>
<g id="xmu"><path d="M 0,0 20,0" class="l1"/><path d="m 0,20 4,0 C 7,10 10,0 20,0" class="l1"/><path d="M 0,5 5,0" class="l2"/><path d="M 0,10 10,0" class="l2"/><path d="M 0,15 10,5" class="l2"/><path d="M 0,20 6,14" class="l2"/></g>
<g id="xmz"><path d="m 0,0 4,0 c 6,10 11,10 16,10" class="l1"/><path d="m 0,20 4,0 C 10,10 15,10 20,10" class="l1"/><path d="M 0,5 4.5,0.5" class="l2"/><path d="M 0,10 6.5,3.5" class="l2"/><path d="M 0,15 8.5,6.5" class="l2"/><path d="M 0,20 11.5,8.5" class="l2"/></g>
<g id="ddd"><path d="m 0,20 20,0" class="l3"/></g>
<g id="dm0"><path d="m 0,20 10,0" class="l3"/><path class="l1" d="m 12,20 8,0"/></g>
<g id="dm1"><path d="M 0,20 3,20 9,0 20,0" class="l1"/></g>
<g id="dmx"><path d="M 3,20 9,0 20,0" class="l1"/><path d="m 20,15 -5,5" class="l2"/><path d="M 20,10 10,20" class="l2"/><path d="M 20,5 5,20" class="l2"/><path d="M 20,0 4,16" class="l2"/><path d="M 15,0 6,9" class="l2"/><path class="l2" d="M 10,0 9,1"/><path d="m 0,20 20,0" class="l1"/></g>
<g id="dmd"><path d="m 0,20 20,0" class="l3"/></g>
<g id="dmu"><path d="m 0,20 3,0 C 7,10 10.107603,0 20,0" class="l1"/></g>
<g id="dmz"><path d="m 0,20 3,0 C 10,10 15,10 20,10" class="l1"/></g>
<g id="uuu"><path d="M 0,0 20,0" class="l3"/></g>
<g id="um0"><path d="m 0,0 3,0 6,20 11,0" class="l1"/></g>
<g id="um1"><path d="M 0,0 10,0" class="l3"/><path class="l1" d="m 12,0 8,0"/></g>
<g id="umx"><path d="m 3,0 6,20 11,0" class="l1"/><path d="M 0,0 20,0" class="l1"/><path d="m 20,15 -5,5" class="l2"/><path d="M 20,10 10,20" class="l2"/><path d="M 20,5 8,17" class="l2"/><path d="M 20,0 7,13" class="l2"/><path d="M 15,0 6,9" class="l2"/><path d="M 10,0 5,5" class="l2"/><path d="M 3.5,1.5 5,0" class="l2"/></g>
<g id="umd"><path d="m 0,0 3,0 c 4,10 7,20 17,20" class="l1"/></g>
<g id="umu"><path class="l3" d="M 0,0 20,0"/></g>
<g id="umz"><path style="color:#000000;fill:none;stroke:#000000;stroke-width:1;stroke-linecap:round;stroke-linejoin:miter;stroke-miterlimit:4;stroke-opacity:1;stroke-dasharray:none;stroke-dashoffset:0;marker:none;visibility:visible;display:inline;overflow:visible" d="m 0,0 3,0 c 7,10 12,10 17,10"/></g>
<g id="zzz"><path d="m 0,10 20,0" class="l1"/></g>
<g id="zm0"><path d="m 0,10 6,0 3,10 11,0" class="l1"/></g>
<g id="zm1"><path d="M 0,10 6,10 9,0 20,0" class="l1"/></g>
<g id="zmx"><path d="m 6,10 3,10 11,0" class="l1"/><path d="M 0,10 6,10 9,0 20,0" class="l1"/><path d="m 20,15 -5,5" class="l2"/><path d="M 20,10 10,20" class="l2"/><path d="M 20,5 8,17" class="l2"/><path d="M 20,0 7,13" class="l2"/><path d="M 15,0 6.5,8.5" class="l2"/><path d="M 10,0 9,1" class="l2"/></g>
<g id="zmd"><path d="m 0,10 7,0 c 3,5 8,10 13,10" class="l1"/></g>
<g id="zmu"><path d="m 0,10 7,0 C 10,5 15,0 20,0" class="l1"/></g>
<g id="zmz"><path d="m 0,10 20,0" class="l1"/></g>
<g id="gap"><path d="m 7,-5 -4,0 c -5,0 -5,30 -10,30 l 4,0 C 2,25 2,-5 7,-5 z" style="fill:#ffffff;stroke:none"/><path class="l1" d="M -7,25 C -2,25 -2,-5 3,-5"/><path class="l1" d="M -3,25 C 2,25 2,-5 7,-5"/></g>
<g id="0mv-3"><path class="f3" d="M 9,0 20,0 20,20 3,20 z"/><path d="M 3,20 9,0 20,0" class="l1"/><path d="m 0,20 20,0" class="l1"/></g>
<g id="1mv-3"><path class="f3" d="M 2.875,0 20,0 20,20 9,20 z"/><path d="m 3,0 6,20 11,0" class="l1"/><path d="M 0,0 20,0" class="l1"/></g>
<g id="xmv-3"><path class="f3" d="M 9,0 20,0 20,20 9,20 6,10 z"/><path d="M 0,20 3,20 9,0 20,0" class="l1"/><path d="m 0,0 3,0 6,20 11,0" class="l1"/><path d="M 0,5 3.5,1.5" class="l2"/><path d="M 0,10 4.5,5.5" class="l2"/><path d="M 0,15 6,9" class="l2"/><path d="M 0,20 4,16" class="l2"/></g>
<g id="dmv-3"><path class="f3" d="M 9,0 20,0 20,20 3,20 z"/><path d="M 3,20 9,0 20,0" class="l1"/><path d="m 0,20 20,0" class="l1"/></g>
<g id="umv-3"><path class="f3" d="M 3,0 20,0 20,20 9,20 z"/><path d="m 3,0 6,20 11,0" class="l1"/><path d="M 0,0 20,0" class="l1"/></g>
<g id="zmv-3"><path class="f3" d="M 9,0 20,0 20,20 9,20 6,10 z"/><path d="m 6,10 3,10 11,0" class="l1"/><path d="M 0,10 6,10 9,0 20,0" class="l1"/></g>
<g id="vvv-3"><path class="f3" d="M 20,20 0,20 0,0 20,0"/><path d="m 0,20 20,0" class="l1"/><path d="M 0,0 20,0" class="l1"/></g>
<g id="vm0-3"><path class="f3" d="m 6.87e-4,19.99609 0,-20 L 3,0 10,20"/><path d="M 0,0 3,0 9,20" class="l1"/><path d="m 0,20 20,0" class="l1"/></g>
<g id="vm1-3"><path class="f3" d="M 0,0 0,20 3,20 9,0"/><path d="M 0,0 20,0" class="l1"/><path d="M 0,20 3,20 9,0" class="l1"/></g>
<g id="vmx-3"><path class="f3" d="M 0,0 0,20 3,20 6,10 3,0"/><path d="m 0,0 3,0 6,20 11,0" class="l1"/><path d="M 0,20 3,20 9,0 20,0" class="l1"/><path d="m 20,15 -5,5" class="l2"/><path d="M 20,10 10,20" class="l2"/><path d="M 20,5 8,17" class="l2"/><path d="M 20,0 7,13" class="l2"/><path d="M 15,0 7,8" class="l2"/><path class="l2" d="M 10,0 9,1"/></g>
<g id="vmd-3"><path class="f3" d="m 0,0 0,20 20,0 C 10,20 7,10 3,0"/><path d="m 0,0 3,0 c 4,10 7,20 17,20" class="l1"/><path d="m 0,20 20,0" class="l1"/></g>
<g id="vmu-3"><path class="f3" d="m 0,0 0,20 3,0 C 7,10 10,0 20,0"/><path d="m 0,20 3,0 C 7,10 10,0 20,0" class="l1"/><path d="M 0,0 20,0" class="l1"/></g>
<g id="vmz-3"><path class="f3" d="M 0,0 3,0 C 10,10 15,10 20,10 15,10 10,10 3,20 L 0,20"/><path d="m 0,0 3,0 c 7,10 12,10 17,10" class="l1"/><path d="m 0,20 3,0 C 10,10 15,10 20,10" class="l1"/></g>
<g id="vmv-2-2"><path d="m 0,0 3,0 6,20 11,0" class="l1"/><path d="M 0,20 3,20 9,0 20,0" class="l1"/></g>
<g id="vmv-2-3"><path class="f3" d="M 9,0 20,0 20,20 9,20 6,10 z"/><path d="m 0,0 3,0 6,20 11,0" class="l1"/><path d="M 0,20 3,20 9,0 20,0" class="l1"/></g>
<g id="vmv-2-4"><path class="f4" d="M 9,0 20,0 20,20 9,20 6,10 z"/><path d="m 0,0 3,0 6,20 11,0" class="l1"/><path d="M 0,20 3,20 9,0 20,0" class="l1"/></g>
<g id="vmv-2-5"><path class="f5" d="M 9,0 20,0 20,20 9,20 6,10 z"/><path d="m 0,0 3,0 6,20 11,0" class="l1"/><path d="M 0,20 3,20 9,0 20,0" class="l1"/></g>
<g id="vmv-3-2"><path class="f3" d="M 3,0 0,0 0,20 3,20 6,10 z"/><path d="m 0,0 3,0 6,20 11,0" class="l1"/><path d="M 0,20 3,20 9,0 20,0" class="l1"/></g>
<g id="vmv-3-3"><path class="f3" d="M 9,0 20,0 20,20 9,20 6,10 z"/><path class="f3" d="M 3,0 0,0 0,20 3,20 6,10 z"/><path d="m 0,0 3,0 6,20 11,0" class="l1"/><path d="M 0,20 3,20 9,0 20,0" class="l1"/></g>
<g id="vmv-3-4"><path class="f4" d="M 9,0 20,0 20,20 9,20 6,10 z"/><path class="f3" d="M 3,0 0,0 0,20 3,20 6,10 z"/><path d="m 0,0 3,0 6,20 11,0" class="l1"/><path d="M 0,20 3,20 9,0 20,0" class="l1"/></g>
<g id="vmv-3-5"><path class="f5" d="M 9,0 20,0 20,20 9,20 6,10 z"/><path class="f3" d="M 3,0 0,0 0,20 3,20 6,10 z"/><path d="m 0,0 3,0 6,20 11,0" class="l1"/><path d="M 0,20 3,20 9,0 20,0" class="l1"/></g>
<g id="vmv-4-2"><path class="f4" d="M 3,0 0,0 0,20 3,20 6,10 z"/><path d="m 0,0 3,0 6,20 11,0" class="l1"/><path d="M 0,20 3,20 9,0 20,0" class="l1"/></g>
<g id="vmv-4-3"><path class="f3" d="M 9,0 20,0 20,20 9,20 6,10 z"/><path class="f4" d="M 3,0 0,0 0,20 3,20 6,10 z"/><path d="m 0,0 3,0 6,20 11,0" class="l1"/><path d="M 0,20 3,20 9,0 20,0" class="l1"/></g>
<g id="vmv-4-4"><path class="f4" d="M 9,0 20,0 20,20 9,20 6,10 z"/><path class="f4" d="M 3,0 0,0 0,20 3,20 6,10 z"/><path d="m 0,0 3,0 6,20 11,0" class="l1"/><path d="M 0,20 3,20 9,0 20,0" class="l1"/></g>
<g id="vmv-4-5"><path class="f5" d="M 9,0 20,0 20,20 9,20 6,10 z"/><path class="f4" d="M 3,0 0,0 0,20 3,20 6,10 z"/><path d="m 0,0 3,0 6,20 11,0" class="l1"/><path d="M 0,20 3,20 9,0 20,0" class="l1"/></g>
<g id="vmv-5-2"><path class="f5" d="M 3,0 0,0 0,20 3,20 6,10 z"/><path d="m 0,0 3,0 6,20 11,0" class="l1"/><path d="M 0,20 3,20 9,0 20,0" class="l1"/></g>
<g id="vmv-5-3"><path class="f3" d="M 9,0 20,0 20,20 9,20 6,10 z"/><path class="f5" d="M 3,0 0,0 0,20 3,20 6,10 z"/><path d="m 0,0 3,0 6,20 11,0" class="l1"/><path d="M 0,20 3,20 9,0 20,0" class="l1"/></g>
<g id="vmv-5-4"><path class="f4" d="M 9,0 20,0 20,20 9,20 6,10 z"/><path class="f5" d="M 3,0 0,0 0,20 3,20 6,10 z"/><path d="m 0,0 3,0 6,20 11,0" class="l1"/><path d="M 0,20 3,20 9,0 20,0" class="l1"/></g>
<g id="vmv-5-5"><path class="f5" d="M 9,0 20,0 20,20 9,20 6,10 z"/><path class="f5" d="M 3,0 0,0 0,20 3,20 6,10 z"/><path d="m 0,0 3,0 6,20 11,0" class="l1"/><path d="M 0,20 3,20 9,0 20,0" class="l1"/></g>
<g id="0mv-4"><path class="f4" d="M 9,0 20,0 20,20 3,20 z"/><path d="M 3,20 9,0 20,0" class="l1"/><path d="m 0,20 20,0" class="l1"/></g>
<g id="1mv-4"><path class="f4" d="M 2.875,0 20,0 20,20 9,20 z"/><path d="m 3,0 6,20 11,0" class="l1"/><path d="M 0,0 20,0" class="l1"/></g>
<g id="xmv-4"><path class="f4" d="M 9,0 20,0 20,20 9,20 6,10 z"/><path d="M 0,20 3,20 9,0 20,0" class="l1"/><path d="m 0,0 3,0 6,20 11,0" class="l1"/><path d="M 0,5 3.5,1.5" class="l2"/><path d="M 0,10 4.5,5.5" class="l2"/><path d="M 0,15 6,9" class="l2"/><path d="M 0,20 4,16" class="l2"/></g>
<g id="dmv-4"><path class="f4" d="M 9,0 20,0 20,20 3,20 z"/><path d="M 3,20 9,0 20,0" class="l1"/><path d="m 0,20 20,0" class="l1"/></g>
<g id="umv-4"><path class="f4" d="M 3,0 20,0 20,20 9,20 z"/><path d="m 3,0 6,20 11,0" class="l1"/><path d="M 0,0 20,0" class="l1"/></g>
<g id="zmv-4"><path class="f4" d="M 9,0 20,0 20,20 9,20 6,10 z"/><path d="m 6,10 3,10 11,0" class="l1"/><path d="M 0,10 6,10 9,0 20,0" class="l1"/></g>
<g id="0mv-5"><path class="f5" d="M 9,0 20,0 20,20 3,20 z"/><path d="M 3,20 9,0 20,0" class="l1"/><path d="m 0,20 20,0" class="l1"/></g>
<g id="1mv-5"><path class="f5" d="M 2.875,0 20,0 20,20 9,20 z"/><path d="m 3,0 6,20 11,0" class="l1"/><path d="M 0,0 20,0" class="l1"/></g>
<g id="xmv-5"><path class="f5" d="M 9,0 20,0 20,20 9,20 6,10 z"/><path d="M 0,20 3,20 9,0 20,0" class="l1"/><path d="m 0,0 3,0 6,20 11,0" class="l1"/><path d="M 0,5 3.5,1.5" class="l2"/><path d="M 0,10 4.5,5.5" class="l2"/><path d="M 0,15 6,9" class="l2"/><path d="M 0,20 4,16" class="l2"/></g>
<g id="dmv-5"><path class="f5" d="M 9,0 20,0 20,20 3,20 z"/><path d="M 3,20 9,0 20,0" class="l1"/><path d="m 0,20 20,0" class="l1"/></g>
<g id="umv-5"><path class="f5" d="M 3,0 20,0 20,20 9,20 z"/><path d="m 3,0 6,20 11,0" class="l1"/><path d="M 0,0 20,0" class="l1"/></g>
<g id="zmv-5"><path class="f5" d="M 9,0 20,0 20,20 9,20 6,10 z"/><path d="m 6,10 3,10 11,0" class="l1"/><path d="M 0,10 6,10 9,0 20,0" class="l1"/></g>
<g id="0mv-2"><path d="M 3,20 9,0 20,0" class="l1"/><path d="m 0,20 20,0" class="l1"/></g>
<g id="1mv-2"><path d="m 3,0 6,20 11,0" class="l1"/><path d="M 0,0 20,0" class="l1"/></g>
<g id="xmv-2"><path d="M 0,20 3,20 9,0 20,0" class="l1"/><path d="m 0,0 3,0 6,20 11,0" class="l1"/><path d="M 0,5 3.5,1.5" class="l2"/><path d="M 0,10 4.5,5.5" class="l2"/><path d="M 0,15 6,9" class="l2"/><path d="M 0,20 4,16" class="l2"/></g>
<g id="dmv-2"><path d="M 3,20 9,0 20,0" class="l1"/><path d="m 0,20 20,0" class="l1"/></g>
<g id="umv-2"><path d="m 3,0 6,20 11,0" class="l1"/><path d="M 0,0 20,0" class="l1"/></g>
<g id="zmv-2"><path d="m 6,10 3,10 11,0" class="l1"/><path d="M 0,10 6,10 9,0 20,0" class="l1"/></g>
<g id="vvv-2"><rect style="fill:#ffffff;fill-opacity:1;stroke:none" id="rect3865-2" width="4" height="16" x="-2" y="2"/><path d="m 0,20 20,0" class="l1"/><path d="M 0,0 20,0" class="l1"/></g>
<g id="vm0-2"><path d="M 0,0 3,0 9,20" class="l1"/><path d="m 0,20 20,0" class="l1"/></g>
<g id="vm1-2"><path d="M 0,0 20,0" class="l1"/><path d="M 0,20 3,20 9,0" class="l1"/></g>
<g id="vmx-2"><path d="m 0,0 3,0 6,20 11,0" class="l1"/><path d="M 0,20 3,20 9,0 20,0" class="l1"/><path d="m 20,15 -5,5" class="l2"/><path d="M 20,10 10,20" class="l2"/><path d="M 20,5 8,17" class="l2"/><path d="M 20,0 7,13" class="l2"/><path d="M 15,0 7,8" class="l2"/><path class="l2" d="M 10,0 9,1"/></g>
<g id="vmd-2"><path d="m 0,0 3,0 c 4,10 7,20 17,20" class="l1"/><path d="m 0,20 20,0" class="l1"/></g>
<g id="vmu-2"><path d="M 0,0 20,0" class="l1"/><path d="m 0,20 3,0 C 7,10 10,0 20,0" class="l1"/></g>
<g id="vmz-2"><path d="m 0,0 3,0 c 7,10 12,10 17,10" class="l1"/><path d="m 0,20 3,0 C 10,10 15,10 20,10" class="l1"/></g>
<g id="vvv-4"><path class="f4" d="M 20,20 0,20 0,0 20,0"/><path d="m 0,20 20,0" class="l1"/><path d="M 0,0 20,0" class="l1"/></g>
<g id="vm0-4"><path class="f4" d="M 0,20 0,0 3,0 9,20"/><path d="M 0,0 3,0 9,20" class="l1"/><path d="m 0,20 20,0" class="l1"/></g>
<g id="vm1-4"><path class="f4" d="M 0,0 0,20 3,20 9,0"/><path d="M 0,0 20,0" class="l1"/><path d="M 0,20 3,20 9,0" class="l1"/></g>
<g id="vmx-4"><path class="f4" d="M 0,0 0,20 3,20 6,10 3,0"/><path d="m 0,0 3,0 6,20 11,0" class="l1"/><path d="M 0,20 3,20 9,0 20,0" class="l1"/><path d="m 20,15 -5,5" class="l2"/><path d="M 20,10 10,20" class="l2"/><path d="M 20,5 8,17" class="l2"/><path d="M 20,0 7,13" class="l2"/><path d="M 15,0 7,8" class="l2"/><path class="l2" d="M 10,0 9,1"/></g>
<g id="vmd-4"><path class="f4" d="m 0,0 0,20 20,0 C 10,20 7,10 3,0"/><path d="m 0,0 3,0 c 4,10 7,20 17,20" class="l1"/><path d="m 0,20 20,0" class="l1"/></g>
<g id="vmu-4"><path class="f4" d="m 0,0 0,20 3,0 C 7,10 10,0 20,0"/><path d="m 0,20 3,0 C 7,10 10,0 20,0" class="l1"/><path d="M 0,0 20,0" class="l1"/></g>
<g id="vmz-4"><path class="f4" d="M 0,0 3,0 C 10,10 15,10 20,10 15,10 10,10 3,20 L 0,20"/><path d="m 0,0 3,0 c 7,10 12,10 17,10" class="l1"/><path d="m 0,20 3,0 C 10,10 15,10 20,10" class="l1"/></g>
<g id="vvv-5"><path class="f5" d="M 20,20 0,20 0,0 20,0"/><path d="m 0,20 20,0" class="l1"/><path d="M 0,0 20,0" class="l1"/></g>
<g id="vm0-5"><path class="f5" d="M 0,20 0,0 3,0 9,20"/><path d="M 0,0 3,0 9,20" class="l1"/><path d="m 0,20 20,0" class="l1"/></g>
<g id="vm1-5"><path class="f5" d="M 0,0 0,20 3,20 9,0"/><path d="M 0,0 20,0" class="l1"/><path d="M 0,20 3,20 9,0" class="l1"/></g>
<g id="vmx-5"><path class="f5" d="M 0,0 0,20 3,20 6,10 3,0"/><path d="m 0,0 3,0 6,20 11,0" class="l1"/><path d="M 0,20 3,20 9,0 20,0" class="l1"/><path d="m 20,15 -5,5" class="l2"/><path d="M 20,10 10,20" class="l2"/><path d="M 20,5 8,17" class="l2"/><path d="M 20,0 7,13" class="l2"/><path d="M 15,0 7,8" class="l2"/><path class="l2" d="M 10,0 9,1"/></g>
<g id="vmd-5"><path class="f5" d="m 0,0 0,20 20,0 C 10,20 7,10 3,0"/><path d="m 0,0 3,0 c 4,10 7,20 17,20" class="l1"/><path d="m 0,20 20,0" class="l1"/></g>
<g id="vmu-5"><path class="f5" d="m 0,0 0,20 3,0 C 7,10 10,0 20,0"/><path d="m 0,20 3,0 C 7,10 10,0 20,0" class="l1"/><path d="M 0,0 20,0" class="l1"/></g>
<g id="vmz-5"><path class="f5" d="M 0,0 3,0 C 10,10 15,10 20,10 15,10 10,10 3,20 L 0,20"/><path d="m 0,0 3,0 c 7,10 12,10 17,10" class="l1"/><path d="m 0,20 3,0 C 10,10 15,10 20,10" class="l1"/></g>
<g id="Pclk"><path d="M -2,11 0,5 2,11 C 1,10.5 -1,10.5 -2,11 z" class="l4"/><path d="M 0,20 0,0 20,0" class="l1"/></g>
<g id="Nclk"><path d="M -2,9 0,15 2,9 C 1,9.5 -1,9.5 -2,9 z" class="l4"/><path d="m 0,0 0,20 20,0" class="l1"/></g>
<!-- SVG template ends -->

</g></defs>
<g id="lanes"></g>
</svg>
